<?xml version="1.0" encoding="UTF-8" standalone="no"?>
<svg
   height="200.10001"
   width="143.10001"
   viewBox="0 0 143.1 200.1"
   enable-background="new 0 0 149.1 208.3"
   xml:space="preserve"
   version="1.1"
   id="svg100"
   sodipodi:docname="African_National_Congress_logo.svg"
   inkscape:version="1.1.2 (b8e25be833, 2022-02-05)"
   xmlns:inkscape="http://www.inkscape.org/namespaces/inkscape"
   xmlns:sodipodi="http://sodipodi.sourceforge.net/DTD/sodipodi-0.dtd"
   xmlns="http://www.w3.org/2000/svg"
   xmlns:svg="http://www.w3.org/2000/svg"><defs
   id="defs104" /><sodipodi:namedview
   id="namedview102"
   pagecolor="#505050"
   bordercolor="#eeeeee"
   borderopacity="1"
   inkscape:pageshadow="0"
   inkscape:pageopacity="0"
   inkscape:pagecheckerboard="0"
   showgrid="false"
   fit-margin-top="0"
   fit-margin-left="0"
   fit-margin-right="0"
   fit-margin-bottom="0"
   inkscape:zoom="3.5765722"
   inkscape:cx="71.576914"
   inkscape:cy="99.816243"
   inkscape:window-width="1920"
   inkscape:window-height="1017"
   inkscape:window-x="-8"
   inkscape:window-y="-8"
   inkscape:window-maximized="1"
   inkscape:current-layer="svg100" />
<g
   id="g98"
   transform="translate(-3,-4.1)">
	<g
   id="g4">
		<path
   fill="#ffffff"
   d="m 74.1,161 c -5.8,7.3 -12.3,12.9 -19.1,17.9 v 24.6 H 35.7 V 177.9 C 22.6,170.8 3,149.7 3,117.9 3,99.9 9.3,77 36.2,57.1 L 36.1,51 h 3.6 L 36.1,43.2 45.2,4.1 54.7,43 50.6,51 h 4.1 v 1.8 c 17.1,-2.4 41.5,8.5 59,7.3 5.6,-0.4 14.2,-1.4 22.3,-6.5 -2.4,20.3 5.8,38.3 10.1,47.1 -4.2,2.6 -7.7,3.8 -13.3,5.4 3.6,6 6.4,13.1 6.4,21.6 0,26.4 -21.5,40.9 -40.3,40.9 -17.3,0 -24.8,-7.6 -24.8,-7.6"
   id="path2" />
	</g>
	<polygon
   points="96.9,185.5 97,185.5 105.4,203.4 113.6,203.4 113.6,170.7 105.6,170.7 105.6,188.2 105.5,188.2 97.6,170.7 89,170.7 89,203.4 96.9,203.4 "
   id="polygon6" />
	<g
   id="g12">
		<path
   d="m 143.4,182.9 c -0.7,-8.2 -4.9,-12.9 -12.3,-12.9 -8.4,0 -13.8,6.8 -13.8,17.1 0,9.6 5,17.1 13.8,17.1 8,0 12.5,-7 12.5,-13.6 h -8.3 c -0.5,3.1 -1.6,5.4 -4.4,5.4 -3.9,0 -5.2,-4.6 -5.2,-9 0,-4.4 1.3,-9 5.2,-9 3.5,0 4.2,3.6 4.4,4.8 h 8.1 z"
   id="path8" />
		<path
   d="m 37.5,42.5 7.6,-33.6 8.1,33.6 -4.3,10.3 c 0.2,0.8 -7,0.2 -7,0.2 z"
   id="path10" />
	</g>
	<polygon
   fill="#ffffff"
   points="45.2,15.2 45.2,51.8 44.1,54.9 39,42.5 "
   id="polygon14" />
	<rect
   x="37.599998"
   y="52.5"
   width="15.5"
   height="149.10001"
   id="rect16" />
	<g
   id="g44">
		<path
   d="m 35.2,99.2 v 3.9 L 10.8,103 c -0.1,-1.3 1,-3.8 1,-3.8 z"
   id="path18" />
		<path
   fill="#ffffff"
   d="m 60.8,127.6 c 0,-20.5 16.6,-37.2 37.2,-37.2 20.5,0 37.2,16.6 37.2,37.2 0,20.5 -16.6,37.2 -37.2,37.2 -20.5,0 -37.2,-16.6 -37.2,-37.2"
   id="path20" />
		<path
   d="M 98,166.2 C 76.7,166.2 59.4,148.9 59.4,127.6 59.4,106.3 76.7,89 98,89 c 21.3,0 38.6,17.3 38.6,38.6 0,21.3 -17.3,38.6 -38.6,38.6 z m 0,-74.4 c -19.7,0 -35.8,16.1 -35.8,35.8 0,19.8 16.1,35.8 35.8,35.8 19.8,0 35.8,-16.1 35.8,-35.8 0,-19.7 -16,-35.8 -35.8,-35.8 z"
   id="path22" />
		<path
   d="m 90.9,127.6 c 0,-3.9 3.2,-7.1 7.1,-7.1 3.9,0 7.1,3.2 7.1,7.1 0,3.9 -3.2,7.1 -7.1,7.1 -3.9,0 -7.1,-3.1 -7.1,-7.1"
   id="path24" />
		<path
   d="m 35.2,73.6 v 4.1 H 22.3 c 1.2,-1.5 0.7,-2.3 2.6,-4.1 z"
   id="path26" />
		<path
   d="m 35.2,80 v 4 H 17.8 c 0.8,-1.6 0.9,-2.3 2.3,-4 z"
   id="path28" />
		<path
   d="m 35.2,86.4 v 4.2 L 14.7,90.5 c 0.4,-2.3 1.3,-2.8 1.8,-4.1 z"
   id="path30" />
		<path
   d="m 35.2,92.9 v 3.9 H 12.4 c -0.1,-1.3 1.2,-3.9 1.2,-3.9 z"
   id="path32" />
		<path
   fill="#ffffff"
   d="m 53.4,168.9 c 4.1,-2.4 10.7,-7.6 12.2,-13.8 l -2.1,1 c 0,0 -3.9,6.7 -10.1,10.2 z"
   id="path34" />
		<path
   d="M 37.6,172.7 C 17.7,160.6 4,131 9.8,105.8 l 28,0.1 6.7,-10.8 15.1,2.9 11.7,-0.3 c -13.4,9.5 -13.7,26.5 -13.7,26.5 -0.7,6 -0.6,8.3 1.2,14.9 2,5.7 6.3,14.3 11.9,18.3 L 60.2,156.7 53.6,156 v 2 l 6.9,0.6 12.2,0.6 c -5.6,7.7 -10.7,11.9 -19.5,18.3 -0.1,0 -10.3,-1.5 -15.6,-4.8"
   id="path36" />
		<path
   fill="#ffffff"
   d="M 35.2,111.2 H 24.1 l -3.1,7.4 -3.2,2 -1.3,5.8 4.3,4.9 -2.5,2.8 v 7.6 l 5.3,3.4 -0.1,4.9 c 4.4,2.7 10.4,4.9 14.6,4.7 v 2.2 c -6.4,-0.6 -11.4,-2 -16.4,-5.3 l 0.3,-5.2 -5.2,-3.2 v -10.6 l 1.6,-1.6 -3.9,-4.1 1.8,-8 3.6,-1.8 3,-7.8 13.5,-0.1 z"
   id="path38" />
		<path
   fill="#ffffff"
   d="m 61.8,109.8 c 0,0.2 -10,-2.3 -10,-2.3 l -12.8,2 -7.1,11.5 c 0,2.7 2.5,4.3 7,2.6 l 7,-6.3 c 0,0 11.7,7.3 11.8,7 1.5,-7.9 4.1,-14.5 4.1,-14.5"
   id="path40" />
		<path
   fill="#ffffff"
   d="m 55,131.9 c 0.6,1.6 1.4,1.7 0.3,4.5 l -9,-1.6 -12.2,1.5 -9.5,6 -3.8,-2.3 v -5.3 l 2.5,-1.9 8.2,-2.9 11.3,-0.8 z"
   id="path42" />
	</g>
	<polygon
   fill="#ffffff"
   points="23.3,118.6 25.6,113.2 33.9,113.2 31.1,117.8 "
   id="polygon46" />
	<g
   id="g56">
		<path
   fill="#ffffff"
   d="m 56.1,138.4 c 0,0 1.2,3.8 -1,5.2 -0.2,0.1 -6,-0.3 -6,-0.3 l -11,3.4 v 5.9 c -3.4,0.6 -9.6,-1.2 -12.2,-3.8 l 0.4,-5 8.3,-5.3 11.5,-1.5 z"
   id="path48" />
		<path
   d="m 36.5,152.9 c -3.6,0 -8.6,-1.7 -10.9,-4 l -0.1,-0.1 0.5,-5.3 0.1,-0.1 8.5,-5.4 11.6,-1.5 v 0 l 10.2,1.5 0.1,0.2 c 0.1,0.2 1.2,4 -1.2,5.5 -0.1,0.1 -0.3,0.2 -6.1,-0.3 l -10.8,3.3 v 5.9 h -0.2 c -0.6,0.3 -1.1,0.3 -1.7,0.3 z m -10.4,-4.3 c 2.5,2.3 8.2,4.1 11.6,3.6 v -5.8 L 49,142.9 h 0.1 c 2.6,0.2 5.6,0.4 5.9,0.4 1.7,-1 1.1,-3.9 0.9,-4.6 l -9.7,-1.5 -11.4,1.5 -8.2,5.2 z"
   id="path50" />
		<path
   d="M 38,177.2 C 17.6,164.2 5.6,143.5 5.1,120.4 4.6,96.2 16.7,73.2 37.6,58.7 L 38.5,60 C 18.1,74.2 6.2,96.7 6.7,120.3 c 0.5,22.6 12.2,42.8 32.1,55.5 z"
   id="path52" />
		<path
   fill="#ffffff"
   d="m 40.9,124.3 5.4,-4.6 c 0,0 9.4,5.8 9.4,5.8 0.8,1.8 -0.5,3.8 -0.5,3.8 l -11.2,-2.5 -12.3,0.6 -8.1,2.8 -4.2,-4.6 0.5,-2.9 2.3,-1.8 c 0,0 8.3,-0.8 8.2,-0.8 -0.8,3.8 2,4.7 3.7,5.4 3.5,0.7 5.5,-0.2 6.8,-1.2"
   id="path54" />
	</g>
	<polygon
   fill="#ffffff"
   points="44.6,106.8 39.8,107.4 39.8,54.1 44.6,54.1 "
   id="polygon58" />
	<polygon
   fill="#ffffff"
   points="50.9,105.6 46.4,106.2 46.3,54.1 50.9,54.1 "
   id="polygon60" />
	<g
   id="g66">
		<path
   d="m 38.9,74.1 0.2,-16.3 c 31.4,-13.2 63.4,16 94.7,-1.3 0,0 -0.8,8.3 0.6,16.1 0,0 -13.7,11.3 -51,3.3 C 65.9,72.3 53.7,70 38.9,74.1"
   id="path62" />
		<path
   fill="#008000"
   d="m 39.7,73.5 c 33.8,-13.2 61.2,16.8 94.8,-0.8 0,0 1.2,7.8 3.5,13.8 -14.1,7 -26.7,7.6 -39,6.3 C 78.4,90.4 62.6,80 39.7,89.1 Z"
   id="path64" />
	</g>
	<polygon
   fill="#ffffff"
   points="44.8,199 40.1,199 40.1,147.4 44.8,146.1 "
   id="polygon68" />
	<polygon
   fill="#ffffff"
   points="50.9,145.1 51,199 46.4,199 46.4,145.7 49,144.8 "
   id="polygon70" />
	<g
   id="g94">
		<path
   d="m 87.5,131.4 -13.7,13.8 c -3.2,-4.3 -4.5,-8.7 -5.2,-13.8 z"
   id="path72" />
		<path
   d="M 87.5,122.9 H 68.1 c 0.8,-5.4 2.9,-9.2 6,-13.4 z"
   id="path74" />
		<path
   d="m 93.4,137.9 v 19.7 c -5.4,-0.8 -9.5,-2.4 -13.8,-5.9 z"
   id="path76" />
		<path
   d="m 103.1,138.2 13.5,13.3 c -4.3,3.2 -7.1,4.8 -13.5,5.8 z"
   id="path78" />
		<path
   d="m 108.7,131.5 h 19.4 c -0.8,5.4 -2.8,9.3 -5.9,13.5 z"
   id="path80" />
		<path
   d="m 108.7,123 13.5,-13.4 c 3.2,4.3 4.8,8.3 5.6,13.4 z"
   id="path82" />
		<path
   d="M 103.1,117.1 V 97.7 c 5.4,0.8 9.5,2.9 13.7,5.9 z"
   id="path84" />
		<path
   d="M 93.4,117.2 79.7,103.4 c 4.3,-3.2 8.6,-4.7 13.8,-5.5 z"
   id="path86" />
		<path
   d="m 35.2,67.1 v 4.1 L 27.5,71 c 1.8,-3.2 2.1,-2.2 4,-4 h 3.7 z"
   id="path88" />
		<path
   fill="#ffffff"
   d="m 52.7,175.6 -0.8,-1.4 c 6,-3.5 14.5,-11.7 18.2,-16.9 l 1.3,0.9 c -3.8,5.4 -12.5,13.8 -18.7,17.4 z m -42.5,-70 -1.6,-0.3 C 12.5,85.9 25.5,69.4 36.4,63 l 0.8,1.4 c -10.6,6.2 -23.3,22.3 -27,41.2 z"
   id="path90" />
		<path
   fill="#ffcc00"
   d="m 39.7,88.4 c 29.3,-13.2 60.4,16.2 98.1,-2.4 0.1,0 6,13.9 6,13.9 -19.8,8.7 -37.3,9.1 -54.8,6 C 73.9,102.7 61.2,96 39.8,104.3 Z"
   id="path92" />
	</g>
	<path
   d="m 58.9,203.4 h 8.4 l 1.2,-4.7 h 8.7 l 1.1,4.7 H 87 l -9.9,-32.6 h -8.2 z m 11.5,-11.7 2.6,-10 h 0.1 l 2.4,10 z"
   id="path96" />
</g>
</svg>
